HIERARCHY
ROOT Hips
{
	OFFSET 0.000000 0.000000 0.000000
	CHANNELS 6 Xposition Yposition Zposition Xrotation Yrotation Zrotation
	JOINT LeftUpLeg_virtual
	{
		OFFSET 0.000000 0.000000 0.000000
		CHANNELS 3 Xrotation Yrotation Zrotation
		JOINT LeftUpLeg
		{
			OFFSET 10.205400 -3.823500 0.155100
			CHANNELS 3 Xrotation Yrotation Zrotation
			JOINT LeftLeg
			{
				OFFSET 0.708757 -12.982077 0.567790
				CHANNELS 3 Xrotation Yrotation Zrotation
				JOINT LeftFoot
				{
					OFFSET -0.708756 -10.717838 -2.184338
					CHANNELS 3 Xrotation Yrotation Zrotation
					JOINT LeftToeBase
					{
						OFFSET 0.108149 -7.191104 7.560241
						CHANNELS 3 Xrotation Yrotation Zrotation
						JOINT LeftToe_End
						{
							OFFSET 0.070230 0.081724 4.490308
							CHANNELS 3 Xrotation Yrotation Zrotation
							End Site
							{
								OFFSET 0 0 0
							}
						}
					}
				}
			}
		}
	}
	JOINT RightUpLeg_virtual
	{
		OFFSET 0.000000 0.000000 0.000000
		CHANNELS 3 Xrotation Yrotation Zrotation
		JOINT RightUpLeg
		{
			OFFSET -10.205400 -3.823500 0.005500
			CHANNELS 3 Xrotation Yrotation Zrotation
			JOINT RightLeg
			{
				OFFSET -0.708756 -12.982134 0.610632
				CHANNELS 3 Xrotation Yrotation Zrotation
				JOINT RightFoot
				{
					OFFSET 0.708754 -10.717769 -1.945823
					CHANNELS 3 Xrotation Yrotation Zrotation
					JOINT RightToeBase
					{
						OFFSET -0.108140 -7.191069 7.372968
						CHANNELS 3 Xrotation Yrotation Zrotation
						JOINT RightToe_End
						{
							OFFSET -0.070227 0.081735 4.479403
							CHANNELS 3 Xrotation Yrotation Zrotation
							End Site
							{
								OFFSET 0 0 0
							}
						}
					}
				}
			}
		}
	}
	JOINT Spine_virtual
	{
		OFFSET 0.000000 0.000000 0.000000
		CHANNELS 3 Xrotation Yrotation Zrotation
		JOINT Spine
		{
			OFFSET 0.000000 6.876099 0.125700
			CHANNELS 3 Xrotation Yrotation Zrotation
			JOINT Spine1
			{
				OFFSET 0.000000 5.730043 0.104720
				CHANNELS 3 Xrotation Yrotation Zrotation
				JOINT Spine1_split
				{
					OFFSET 0.000000 5.730043 0.104720
					CHANNELS 3 Xrotation Yrotation Zrotation
					JOINT Spine2
					{
						OFFSET 0.000000 5.730043 0.104720
						CHANNELS 3 Xrotation Yrotation Zrotation
						JOINT Neck_virtual
						{
							OFFSET 0.000000 0.000000 0.000000
							CHANNELS 3 Xrotation Yrotation Zrotation
							JOINT Neck
							{
								OFFSET 0.000000 10.314075 0.188496
								CHANNELS 3 Xrotation Yrotation Zrotation
								JOINT Head
								{
									OFFSET 0.000000 7.643700 -2.377400
									CHANNELS 3 Xrotation Yrotation Zrotation
									JOINT HeadTop_End
									{
										OFFSET 0.000000 43.788605 -13.619600
										CHANNELS 3 Xrotation Yrotation Zrotation
										End Site
										{
											OFFSET 0 0 0
										}
									}
								}
							}
						}
						JOINT LeftShoulder_virtual
						{
							OFFSET 0.000000 0.000000 0.000000
							CHANNELS 3 Xrotation Yrotation Zrotation
							JOINT LeftShoulder
							{
								OFFSET 2.196100 4.412489 0.087492
								CHANNELS 3 Xrotation Yrotation Zrotation
								JOINT LeftShoulder_split
								{
									OFFSET 2.196100 4.412489 0.087492
									CHANNELS 3 Xrotation Yrotation Zrotation
									JOINT LeftArm
									{
										OFFSET 8.771219 -2.981674 -0.026999
										CHANNELS 3 Xrotation Yrotation Zrotation
										JOINT LeftForeArm
										{
											OFFSET 8.512804 0.000000 -0.000000
											CHANNELS 3 Xrotation Yrotation Zrotation
											JOINT LeftHand
											{
												OFFSET 18.484802 0.000000 -0.000000
												CHANNELS 3 Xrotation Yrotation Zrotation
												End Site
												{
													OFFSET 0 0 0
												}
											}
										}
									}
								}
							}
						}
						JOINT RightShoulder_virtual
						{
							OFFSET 0.000000 0.000000 0.000000
							CHANNELS 3 Xrotation Yrotation Zrotation
							JOINT RightShoulder
							{
								OFFSET -2.196100 4.412496 0.070690
								CHANNELS 3 Xrotation Yrotation Zrotation
								JOINT RightShoulder_split
								{
									OFFSET -2.196100 4.412496 0.070690
									CHANNELS 3 Xrotation Yrotation Zrotation
									JOINT RightArm
									{
										OFFSET -8.771282 -2.981682 -0.094208
										CHANNELS 3 Xrotation Yrotation Zrotation
										JOINT RightForeArm
										{
											OFFSET -8.494598 0.000000 0.000000
											CHANNELS 3 Xrotation Yrotation Zrotation
											JOINT RightHand
											{
												OFFSET -18.483803 0.000000 0.000001
												CHANNELS 3 Xrotation Yrotation Zrotation
												End Site
												{
													OFFSET 0 0 0
												}
											}
										}
									}
								}
							}
						}
					}
				}
			}
		}
	}
}
MOTION
Frames: 7
Frame Time: 0.03333333
82.325150 12.085209 -14.282183 0.000000 0.000000 0.000000 -127.713923 -21.238779 58.294708 -85.173108 9.966171 5.181392 112.740305 -17.487969 0.587156 12.706012 3.242534 9.074092 15.966197 -1.575914 3.702355 0.000000 0.000000 0.000000 -128.625330 -24.313293 56.196078 -80.661276 -1.214900 7.522005 63.280227 5.645985 5.052202 -8.567882 -0.874758 12.429925 -18.306804 -1.195973 -0.054672 0.000000 0.000000 0.000000 -135.590101 -23.116625 68.186093 13.203053 7.977488 5.429626 23.207212 5.365184 1.725684 -1.248014 1.973534 1.714194 0.000000 0.000000 0.000000 20.326655 5.309461 1.096472 53.547870 -4.544445 -8.424800 -24.246424 -17.231785 13.207797 0.000000 0.000000 0.000000 21.981466 6.452181 1.757350 2.545739 1.513022 4.553831 5.950219 -7.892325 1.228896 -34.890778 -16.901819 -5.093073 175.388138 -43.929864 177.569223 0.000000 0.000000 0.000000 17.980717 5.172328 2.897652 -1.955087 -4.507975 -3.104301 10.299614 -6.478230 6.331766 -76.022621 3.293292 46.935510 -164.454904 61.820848 159.273946 0.000000 0.000000 0.000000 
84.334229 10.544550 -14.979303 0.000000 0.000000 0.000000 -129.328484 -8.897181 68.468255 -81.242061 18.922993 11.933873 110.984673 -15.032475 -1.182247 7.189221 7.357097 10.007409 16.074917 -1.859178 3.713391 0.000000 0.000000 0.000000 -128.701897 -12.429627 63.888148 -80.178846 -0.943933 4.956535 67.297301 5.704148 6.450686 -14.359790 -0.142532 15.917297 -15.410703 -0.029651 -1.442608 0.000000 0.000000 0.000000 -136.571695 -12.237652 78.522136 13.823263 5.993747 4.383723 22.707526 5.697967 2.467123 -0.443706 0.961493 1.962720 0.000000 0.000000 0.000000 19.447321 5.753177 1.766465 51.785258 -4.309154 -10.161539 -21.205106 -14.302698 14.073347 0.000000 0.000000 0.000000 22.010160 6.372704 2.364731 1.850706 3.113710 2.666154 5.714144 -7.690611 0.166167 -22.642434 -20.545983 -10.106281 173.270343 -48.167976 176.064450 0.000000 0.000000 0.000000 17.683640 5.490692 3.943717 -2.694391 -5.103362 -4.755355 9.356970 -2.960724 4.689323 -61.026149 -3.320134 45.746497 -155.343746 73.433604 151.007519 0.000000 0.000000 0.000000 
86.543343 9.200613 -15.722166 0.000000 0.000000 0.000000 -133.021076 1.939136 80.142059 -81.391915 30.831508 19.807171 109.880743 -10.942912 -2.915443 1.311719 11.054578 11.203734 14.250816 -2.050722 3.462698 0.000000 0.000000 0.000000 -130.720900 -1.170096 72.746685 -78.671348 -1.092486 2.870101 68.210736 4.736428 8.089773 -19.217893 -0.200414 18.281223 -12.048222 0.764582 -2.836037 0.000000 0.000000 0.000000 -139.888654 -2.425735 89.574127 14.122228 4.142552 2.906870 21.914408 5.988492 2.897564 0.075404 -0.070996 1.993163 0.000000 0.000000 0.000000 19.270112 6.154842 2.216568 49.181224 -3.645447 -10.710462 -20.079831 -12.682137 14.799452 0.000000 0.000000 0.000000 22.286480 6.370442 2.786534 1.276702 3.310020 -0.481997 5.671509 -6.217061 0.976743 -13.811320 -22.165332 -13.435335 171.236148 -55.035520 173.718471 0.000000 0.000000 0.000000 17.633392 5.810287 4.784353 -3.144977 -3.636838 -5.230853 8.460623 1.280206 3.435433 -47.753606 -4.355297 45.053885 -59.006148 83.270606 55.812604 0.000000 0.000000 0.000000 
89.032547 8.265402 -16.090876 0.000000 0.000000 0.000000 -138.468288 11.569218 93.282141 -87.107930 41.067025 27.493031 110.184127 -6.619027 -4.135169 -2.609953 13.534307 11.483865 11.158022 -2.143128 2.811625 0.000000 0.000000 0.000000 -134.770438 8.616862 82.593748 -75.481541 -0.504759 1.853442 66.059295 2.486908 9.942881 -22.590712 -0.860568 18.774401 -9.469344 1.012471 -3.824897 0.000000 0.000000 0.000000 -145.326331 6.042982 101.857375 13.927915 2.951612 1.310788 20.908146 6.327073 2.939603 -0.044044 -0.418546 1.623478 0.000000 0.000000 0.000000 19.737208 6.610331 2.330767 45.627112 -2.278178 -9.590937 -21.464622 -12.374596 15.592451 0.000000 0.000000 0.000000 22.623294 6.608068 2.885192 0.789408 2.299964 -4.086365 5.100110 -4.885586 2.843247 -7.054320 -21.635075 -15.306001 168.745643 -63.584560 170.121147 0.000000 0.000000 0.000000 17.646767 6.131350 5.220752 -3.395326 -1.146741 -4.747541 8.393508 5.363920 2.045002 -38.061075 -2.146150 43.195896 -9.199052 65.449386 7.333292 0.000000 0.000000 0.000000 
91.728203 7.875696 -16.346048 0.000000 0.000000 0.000000 -146.003408 19.007764 107.478784 -95.688997 47.019316 32.892542 112.372492 -2.630229 -5.215970 -5.548786 14.366903 12.893852 7.382189 -2.059273 1.746374 0.000000 0.000000 0.000000 -140.849197 16.325798 93.460081 -71.558970 1.300742 1.876770 63.013754 0.173600 11.157613 -23.907033 -1.337768 18.259035 -8.323909 1.057763 -4.347529 0.000000 0.000000 0.000000 -152.367846 12.138258 114.113651 13.406264 2.675589 0.009341 19.821716 6.781623 2.709243 -0.608254 -0.588491 1.847913 0.000000 0.000000 0.000000 20.697217 7.060691 2.091265 40.717862 -0.210339 -7.278573 -25.131942 -12.607025 16.367136 0.000000 0.000000 0.000000 22.796709 7.083365 2.673230 0.276100 0.260141 -7.350843 3.140016 -3.492522 3.511053 -1.590799 -20.334204 -16.071406 163.983198 -72.315167 163.763375 0.000000 0.000000 0.000000 17.651605 6.481147 5.241230 -3.425385 1.516721 -3.526314 8.586437 7.757626 0.190234 -32.682623 0.410007 40.320246 -2.419173 47.854170 1.803251 0.000000 0.000000 0.000000 
94.694267 8.021500 -16.266943 0.000000 0.000000 0.000000 -155.111110 23.629854 121.496634 -101.646704 49.787537 32.687728 116.179523 0.575350 -6.462494 -9.297681 13.806830 16.336855 4.881587 -1.826794 0.162386 0.000000 0.000000 0.000000 -149.064603 22.029546 106.024589 -68.769726 4.820369 1.828034 61.472017 -0.875835 11.795218 -22.129417 -1.323740 18.387387 -9.435759 1.037110 -4.462145 0.000000 0.000000 0.000000 -160.158961 15.984827 126.172732 12.889511 3.289507 -0.829974 18.956615 7.246409 2.397248 -1.317253 -0.991211 2.173206 0.000000 0.000000 0.000000 22.072817 7.480234 1.676978 34.385925 2.437451 -5.160495 -30.488366 -12.257574 16.988040 0.000000 0.000000 0.000000 22.816194 7.621726 2.352136 -0.274642 -2.055182 -9.698234 1.171641 -1.406457 2.111780 3.495494 -19.534000 -15.278962 151.652985 -80.081113 149.589776 0.000000 0.000000 0.000000 17.637481 6.760894 5.053513 -3.318756 3.647622 -2.108976 9.039312 8.851051 -2.177685 -32.644531 0.954746 37.705749 -0.017328 35.829308 0.371540 0.000000 0.000000 0.000000 
97.670609 8.616629 -16.080076 0.000000 0.000000 0.000000 -164.458019 25.419609 134.186006 -101.571729 49.908401 26.275268 119.590206 1.412415 -6.498955 -13.083513 11.856077 16.156932 2.008900 -1.420006 -0.557035 0.000000 0.000000 0.000000 -158.762201 25.243549 119.741166 -68.803064 9.537478 0.167523 63.971531 0.608102 11.839655 -17.085073 -0.396062 20.904919 -12.667264 1.011431 -4.210906 0.000000 0.000000 0.000000 -167.840301 17.676195 137.225822 12.578224 4.572698 -1.094931 18.468005 7.656129 2.239383 -1.502300 -1.050194 2.433391 0.000000 0.000000 0.000000 23.668596 7.828581 1.340899 27.137265 5.940923 -4.781317 -36.686097 -10.114075 17.252406 0.000000 0.000000 0.000000 22.976109 8.036859 2.144480 -0.805978 -4.249719 -10.711574 -0.269043 1.435227 -0.354870 7.651548 -19.959537 -13.216285 98.411865 -85.127496 94.735065 0.000000 0.000000 0.000000 17.642584 6.927302 4.888623 -3.107434 5.320251 -0.798865 9.484472 9.029926 -4.324426 -37.344179 -0.733093 36.155200 0.982176 29.794176 0.032381 0.000000 0.000000 0.000000 
